<svg xmlns="http://www.w3.org/2000/svg" width="257" height="29" viewBox="0 0 257 29">
    <g fill="none" fill-rule="evenodd">
        <g fill-rule="nonzero">
            <g>
                <g>
                    <path fill="#195FB5" d="M9.96.77h5.691l9.96 27.303h-6.46l-2.115-6.115H8.537l-2.076 6.115H0L9.96.769zm6.038 16.843L12.806 7.96l-3.269 9.653h6.46zm9.726.346c0-1.385.244-2.711.73-3.98.488-1.27 1.193-2.385 2.116-3.346.923-.961 2.057-1.724 3.403-2.288 1.346-.564 2.878-.846 4.596-.846 2.333 0 4.294.493 5.883 1.48 1.59.987 2.782 2.276 3.577 3.865l-6 1.808c-.794-1.282-1.96-1.923-3.499-1.923-1.282 0-2.352.474-3.21 1.423-.86.948-1.289 2.217-1.289 3.807 0 .795.115 1.519.346 2.173.23.653.551 1.21.961 1.672.41.462.891.82 1.443 1.077.55.256 1.134.385 1.75.385.768 0 1.473-.186 2.114-.558.641-.372 1.116-.852 1.423-1.442l6 1.846c-.744 1.564-1.93 2.846-3.558 3.845-1.628 1-3.608 1.5-5.941 1.5-1.692 0-3.211-.288-4.557-.865-1.346-.577-2.487-1.346-3.423-2.307-.936-.962-1.647-2.077-2.134-3.346-.487-1.27-.73-2.596-.73-3.98zm21.725 0c0-1.385.244-2.711.73-3.98.488-1.27 1.193-2.385 2.116-3.346.923-.961 2.057-1.724 3.403-2.288 1.346-.564 2.878-.846 4.596-.846 2.333 0 4.294.493 5.883 1.48 1.59.987 2.782 2.276 3.577 3.865l-6 1.808c-.794-1.282-1.96-1.923-3.499-1.923-1.282 0-2.352.474-3.21 1.423-.86.948-1.29 2.217-1.29 3.807 0 .795.116 1.519.347 2.173.23.653.551 1.21.961 1.672.41.462.891.82 1.442 1.077.552.256 1.135.385 1.75.385.77 0 1.474-.186 2.115-.558.641-.372 1.115-.852 1.423-1.442l6 1.846c-.744 1.564-1.93 2.846-3.558 3.845-1.628 1-3.608 1.5-5.941 1.5-1.692 0-3.211-.288-4.557-.865-1.346-.577-2.487-1.346-3.423-2.307-.936-.962-1.647-2.077-2.134-3.346-.487-1.27-.73-2.596-.73-3.98zm32.57 10.498c-1.693 0-3.211-.275-4.557-.827-1.346-.55-2.487-1.3-3.423-2.25-.936-.948-1.647-2.044-2.134-3.287-.487-1.244-.73-2.545-.73-3.903 0-1.462.243-2.84.73-4.134.487-1.295 1.192-2.43 2.115-3.404.923-.974 2.057-1.743 3.403-2.307 1.346-.564 2.878-.846 4.596-.846 1.717 0 3.243.282 4.576.846 1.333.564 2.46 1.327 3.384 2.288.923.961 1.621 2.07 2.096 3.326.474 1.257.711 2.577.711 3.961 0 .36-.013.712-.038 1.058-.026.346-.064.647-.116.904h-14.92c.102 1.358.596 2.39 1.48 3.095.885.705 1.89 1.058 3.019 1.058.897 0 1.762-.218 2.596-.654.833-.436 1.39-1.025 1.672-1.769l5.23 1.461c-.794 1.59-2.025 2.885-3.691 3.884-1.667 1-3.666 1.5-6 1.5zm4.268-12.383c-.128-1.281-.59-2.294-1.384-3.038-.795-.743-1.782-1.115-2.961-1.115-1.205 0-2.199.378-2.98 1.135-.783.756-1.238 1.762-1.366 3.018h8.691zM115.354 7.5c3.051 0 5.41.718 7.076 2.153 1.666 1.436 2.5 3.538 2.5 6.307v5.192c0 .615.096 1.044.288 1.288.192.243.532.39 1.02.442v5.192c-.54.128-1.026.211-1.462.25-.436.038-.833.057-1.192.057-1.154 0-2.026-.224-2.615-.673-.59-.448-.962-1.083-1.115-1.903l-.116-.923c-.897 1.153-1.967 2.038-3.21 2.653-1.244.616-2.558.923-3.943.923-1 0-1.929-.16-2.788-.48-.858-.321-1.596-.77-2.21-1.346-.616-.577-1.103-1.257-1.462-2.039-.36-.782-.539-1.634-.539-2.557 0-1 .212-1.91.635-2.73.423-.82 1.02-1.526 1.788-2.115.77-.59 1.68-1.051 2.73-1.385 1.052-.333 2.218-.5 3.5-.5.846 0 1.666.07 2.461.212.795.14 1.487.352 2.077.634v-.923c0-2.333-1.346-3.499-4.038-3.499-1.102 0-2.154.186-3.153.558-1 .371-2.051.929-3.154 1.672l-1.807-3.845c1.333-.872 2.717-1.526 4.153-1.961 1.436-.436 2.961-.654 4.576-.654zM99.86 0v20.881c0 1.539.654 2.308 1.961 2.308.308 0 .648-.045 1.02-.135.371-.09.71-.224 1.019-.404l.807 4.615c-.769.359-1.654.64-2.653.846-1 .205-1.936.308-2.808.308-1.769 0-3.127-.462-4.076-1.385-.948-.923-1.423-2.256-1.423-4V0h6.153zm15.418 18.728c-1.128 0-2.057.256-2.788.769-.73.513-1.096 1.18-1.096 2 0 .743.282 1.352.846 1.826.564.475 1.282.712 2.154.712.666 0 1.314-.116 1.942-.346.628-.231 1.147-.539 1.557-.923.59-.462.885-.949.885-1.462v-1.922c-.539-.205-1.122-.366-1.75-.481-.628-.115-1.211-.173-1.75-.173z" transform="translate(-135 -92) translate(135 92)"/>
                    <path fill="#398FF4" d="M149.488 8.768c-.077-.103-.346-.295-.808-.577-.461-.282-1.038-.577-1.73-.884-.693-.308-1.449-.577-2.27-.808-.82-.23-1.64-.346-2.46-.346-2.257 0-3.385.756-3.385 2.269 0 .461.122.846.366 1.153.243.308.602.584 1.077.827.474.244 1.07.468 1.788.673l1.025.289c.456.126.947.261 1.474.403 1.308.36 2.487.75 3.538 1.173 1.051.423 1.942.949 2.673 1.577.73.628 1.295 1.39 1.692 2.288.397.897.596 1.974.596 3.23 0 1.539-.288 2.84-.865 3.904s-1.34 1.922-2.288 2.576c-.949.654-2.038 1.128-3.27 1.423-1.23.295-2.499.442-3.806.442-1 0-2.025-.077-3.077-.23-1.05-.154-2.076-.379-3.076-.673-1-.295-1.968-.648-2.903-1.058-.936-.41-1.801-.884-2.596-1.423l2.769-5.499c.102.128.435.372 1 .73.563.36 1.262.718 2.095 1.077.833.36 1.763.68 2.788.962 1.026.282 2.064.423 3.115.423 2.23 0 3.346-.68 3.346-2.038 0-.513-.167-.936-.5-1.27-.333-.333-.795-.634-1.384-.903-.525-.24-1.135-.463-1.831-.672l-1.342-.389c-.496-.144-1.015-.297-1.558-.458-1.256-.385-2.345-.801-3.268-1.25-.923-.449-1.686-.968-2.288-1.557-.603-.59-1.051-1.27-1.346-2.038-.295-.77-.443-1.667-.443-2.692 0-1.436.27-2.705.808-3.807.538-1.103 1.27-2.032 2.192-2.789.923-.756 1.993-1.326 3.211-1.71 1.218-.385 2.506-.578 3.865-.578.948 0 1.884.09 2.807.27.923.179 1.807.41 2.654.692.846.282 1.634.602 2.365.961.73.36 1.403.718 2.018 1.077l-2.768 5.23zm16.42 19.69c-1.692 0-3.21-.276-4.557-.828-1.346-.55-2.487-1.3-3.422-2.25-.936-.948-1.648-2.044-2.135-3.287-.487-1.244-.73-2.545-.73-3.903 0-1.462.243-2.84.73-4.134.487-1.295 1.192-2.43 2.115-3.404.923-.974 2.058-1.743 3.404-2.307 1.346-.564 2.878-.846 4.595-.846 1.718 0 3.243.282 4.576.846 1.334.564 2.462 1.327 3.385 2.288.922.961 1.621 2.07 2.095 3.326.475 1.257.712 2.577.712 3.961 0 .36-.013.712-.039 1.058-.025.346-.064.647-.115.904h-14.92c.102 1.358.595 2.39 1.48 3.095.884.705 1.89 1.058 3.018 1.058.898 0 1.763-.218 2.596-.654.833-.436 1.391-1.025 1.673-1.769l5.23 1.461c-.795 1.59-2.025 2.885-3.692 3.884-1.666 1-3.666 1.5-5.999 1.5zm4.269-12.384c-.128-1.281-.59-2.294-1.385-3.038-.794-.743-1.781-1.115-2.96-1.115-1.206 0-2.2.378-2.981 1.135-.782.756-1.237 1.762-1.365 3.018h8.69zm15.036 12.383c-1 0-1.93-.16-2.788-.48-.859-.321-1.596-.77-2.211-1.346-.616-.577-1.103-1.257-1.462-2.039-.359-.782-.538-1.634-.538-2.557 0-1 .211-1.91.635-2.73.423-.82 1.019-1.526 1.788-2.115.769-.59 1.679-1.051 2.73-1.385 1.051-.333 2.218-.5 3.5-.5.846 0 1.666.07 2.46.212.795.14 1.488.352 2.077.634v-.923c0-2.333-1.346-3.499-4.038-3.499-1.102 0-2.153.186-3.153.558-1 .371-2.05.929-3.153 1.672l-1.808-3.845c1.333-.872 2.718-1.526 4.153-1.961 1.436-.436 2.962-.654 4.577-.654 3.05 0 5.41.718 7.076 2.153 1.666 1.436 2.5 3.538 2.5 6.307v5.192c0 .615.095 1.044.288 1.288.192.243.532.39 1.019.442v5.192c-.539.128-1.026.211-1.462.25-.435.038-.833.057-1.192.057-1.153 0-2.025-.224-2.615-.673-.59-.448-.961-1.083-1.115-1.903l-.115-.923c-.898 1.153-1.968 2.038-3.211 2.653-1.244.616-2.558.923-3.942.923zm1.807-4.422c.667 0 1.314-.116 1.942-.346.628-.231 1.148-.539 1.558-.923.59-.462.884-.949.884-1.462v-1.922c-.538-.205-1.121-.366-1.75-.481-.628-.115-1.21-.173-1.75-.173-1.127 0-2.057.256-2.787.769s-1.096 1.18-1.096 2c0 .743.282 1.352.846 1.826.564.475 1.282.712 2.153.712zm27.804-10.883c-1.487.025-2.833.269-4.038.73-1.205.462-2.077 1.154-2.615 2.077v12.114h-6.153V7.883h5.653v4.077c.692-1.36 1.583-2.423 2.673-3.192 1.09-.77 2.25-1.167 3.48-1.192h.615c.128 0 .257.013.385.038v5.538zm-.616 4.807c0-1.385.244-2.711.731-3.98.487-1.27 1.192-2.385 2.115-3.346.923-.961 2.058-1.724 3.403-2.288 1.346-.564 2.878-.846 4.596-.846 2.333 0 4.294.493 5.884 1.48 1.59.987 2.781 2.276 3.576 3.865l-6 1.808c-.794-1.282-1.96-1.923-3.499-1.923-1.281 0-2.352.474-3.21 1.423-.86.948-1.289 2.217-1.289 3.807 0 .795.116 1.519.346 2.173.231.653.551 1.21.962 1.672.41.462.89.82 1.442 1.077.55.256 1.134.385 1.75.385.769 0 1.474-.186 2.115-.558.64-.372 1.115-.852 1.422-1.442l6 1.846c-.744 1.564-1.93 2.846-3.558 3.845-1.628 1-3.608 1.5-5.941 1.5-1.692 0-3.211-.288-4.557-.865-1.346-.577-2.487-1.346-3.423-2.307-.935-.962-1.647-2.077-2.134-3.346-.487-1.27-.73-2.596-.73-3.98zm42.57 10.114h-6.152V16.728c0-1.307-.256-2.269-.77-2.884-.512-.615-1.217-.923-2.114-.923-.36 0-.75.083-1.173.25-.423.167-.833.41-1.23.73-.398.321-.763.7-1.097 1.135-.333.436-.59.923-.769 1.461v11.576h-6.153V0h6.153v11.267c.744-1.204 1.724-2.134 2.942-2.788 1.218-.653 2.557-.98 4.019-.98 1.358 0 2.454.237 3.288.711.833.475 1.474 1.077 1.922 1.808.449.73.75 1.55.904 2.46.154.911.23 1.802.23 2.674v12.92z" transform="translate(-135 -92) translate(135 92)"/>
                </g>
            </g>
        </g>
    </g>
</svg>