<svg xmlns="http://www.w3.org/2000/svg" viewBox="0 0 832.195 1568.462">
  <defs>
    <style>

      .cls-2 {
        fill: #4f8fed;
      }

      .cls-3 {
        fill: none;
      }

      .cls-4 {
        fill: #306ccc;
      }
    </style>
  </defs>
  <g id="Group_2" data-name="Group 2" class="cls-1" transform="translate(-162.5 -267.731)">
    <g id="Group_1" data-name="Group 1" transform="translate(162.5 267.731)">
      <path id="Fill_1" data-name="Fill 1" class="cls-2" d="M418.994,317.628c0,147.212-13.776,288.548-94.866,414.841-64.052,99.644-157.713,178.514-209.048,286.613-7.6,15.957-11.934,34.012-14.543,51.44-1.535,10.228-2.487,20.649-1.451,30.969a151.931,151.931,0,0,0,3.277,17.947c-38.189-60.785-80.414-113.781-94.528-186.148C-6.77,858.336-.952,779.178,25.249,707.454c28.4-77.756,82.886-143.69,134.359-206.913,18.066-22.189,36.2-44.325,53.592-67.056C267.045,363.091,317.758,289.7,357.129,209.948,388.9,145.586,418,72.925,418.073,0c.568,9.81.99,18.984.921,26.146-.921,108.238,0,192.629,0,291.483" transform="translate(413.194 449.024)"/>
      <path id="Fill_3" data-name="Fill 3" class="cls-3" d="M88.847,560.8c0,.077.069.147.069.217.069.147.069.286.146.356a24.151,24.151,0,0,1-2.272-4.01c-.077-.07-.077-.139-.215-.286A684.253,684.253,0,0,1,21.886,411.659c-24.428-78.8-31.389-165.26-5.4-243.627C29.054,130.35,48.44,95.966,71.1,63.371c.353-.5,24.014-34,48.58-63.371L286.967,1.548C255.286,34.461,223.751,79.2,183.621,125.17c-32.7,37.465-58.5,87.039-80.146,132-45.357,94.2-51.19,188.494-19.977,286.094.368,1.138,4.421,15.678,5.349,17.536" transform="translate(426.012 1006.372)"/>
      <path id="Clip_6" data-name="Clip 6" class="cls-3" d="M0,0H831.267V1568.458H0Z" transform="translate(0 0.004)"/>
      <path id="Fill_5" data-name="Fill 5" class="cls-4" d="M831.267,449.024q-.1,103.371-43.246,203.662c-37.774,88.108-99.271,176.076-161.543,254.946-15.9,20.2-31.88,39.827-47.506,58.671C551,999.967,522.027,1033.778,497.1,1069.741c-22.648,32.6-42.034,66.979-54.6,104.661-25.986,78.368-19.033,164.834,5.4,243.627q.668,2.16,1.358,4.313.691,2.183,1.4,4.367c.476,1.463.959,2.934,1.443,4.4s.99,2.95,1.5,4.421q.76,2.23,1.535,4.452.783,2.241,1.581,4.475.806,2.253,1.627,4.506c.553,1.51,1.105,3.019,1.673,4.529s1.136,3.027,1.711,4.545,1.174,3.05,1.765,4.568q.9,2.3,1.8,4.591.921,2.311,1.85,4.607c.629,1.541,1.259,3.089,1.9,4.622.637,1.548,1.289,3.1,1.942,4.645s1.32,3.1,1.988,4.653,1.351,3.112,2.034,4.669,1.381,3.12,2.08,4.676,1.412,3.128,2.126,4.684c.721,1.572,1.443,3.136,2.18,4.7s1.474,3.143,2.218,4.707,1.5,3.143,2.264,4.715,1.543,3.143,2.318,4.715,1.566,3.151,2.364,4.715c.79,1.579,1.6,3.151,2.4,4.723s1.635,3.151,2.456,4.723,1.665,3.159,2.5,4.723q1.266,2.369,2.556,4.723,1.289,2.369,2.6,4.723t2.64,4.707c.9,1.579,1.8,3.143,2.7,4.715s6.984,11.908,7.153,12.125a.579.579,0,0,1-.215-.07c-107.084-18.341-252.149-62.325-343.684-186.613-53.254-72.352-85.349-153.871-91.949-237.821A409.375,409.375,0,0,1,91.36,1009.637c1.635-6.519,3.477-12.961,5.464-19.48,1-3.368,2.134-6.805,3.269-10.173.783-2.656,1.7-5.3,2.7-7.951,1.2-3.515,2.479-6.953,3.83-10.46C165,809.56,308.72,707.052,457.553,643.581c73.914-31.519,154.512-58.16,206.7-119.627,67.322-79.3,65.4-209.321-4.259-286.543-34.152-37.891-82.295-60.529-132.5-66.692-48.281-6.085-98.488,3.159-139.885,28.8a5.968,5.968,0,0,0-.921.573c-3.055,1.936-6.04,3.941-9.018,6.016a195.027,195.027,0,0,0-31.389,27.942c-.5.573-1.067,1.068-1.558,1.641a5.658,5.658,0,0,1-.852,1.007A216.753,216.753,0,0,0,328.1,257.116a17.069,17.069,0,0,0-1.2,1.858,224.235,224.235,0,0,0-23.929,47.352c-.568,1.579-1.2,3.151-1.773,4.8a233.3,233.3,0,0,0-10.652,107.022c.138.929.284,1.936.43,2.942q1.163,7.735,2.978,15.252a8.671,8.671,0,0,0,.284,1.293,196.379,196.379,0,0,0,16.262,44.627c.353.859.852,1.719,1.274,2.578C279.249,440,259.717,385.917,223.01,344.511,186.295,303.027,121.252,277.6,76.164,309.477,42.787,333.044,33.133,378.461,32.5,419.511,31,521.879,71.475,624.24,142.488,697.452c-18.6-19.123-39.555-34.523-56.669-55.512a379.408,379.408,0,0,1-44.1-68.125A388.532,388.532,0,0,1,.4,417.358a364.759,364.759,0,0,1,3.9-73.064C22.411,230.033,85.612,134.764,181.4,71.439,257.093,21.362,348.551-5.5,439.157.946,611.214,13.272,768.635,144.434,813.086,312.558a551.385,551.385,0,0,1,14.988,79.088V392a513.559,513.559,0,0,1,3.193,57.022" transform="translate(0 0)"/>
      <path id="Clip_6-2" data-name="Clip 6" class="cls-3" d="M0,0H831.267V1568.458H0Z" transform="translate(0 0.004)"/>
      <path id="Clip_9" data-name="Clip 9" class="cls-3" d="M0,0H831.267V1568.458H0Z" transform="translate(0 0.004)"/>
      <path id="Fill_8" data-name="Fill 8" class="cls-4" d="M831.267,449.024q-.1,103.371-43.246,203.662c-37.774,88.108-99.271,176.076-161.543,254.946-15.9,20.2-31.88,39.827-47.506,58.671C551,999.967,522.027,1033.778,497.1,1069.741c-22.648,32.6-42.034,66.979-54.6,104.661-25.986,78.368-19.033,164.834,5.4,243.627q.668,2.16,1.358,4.313.691,2.183,1.4,4.367c.476,1.463.959,2.934,1.443,4.4s.99,2.95,1.5,4.421q.76,2.23,1.535,4.452.783,2.241,1.581,4.475.806,2.253,1.627,4.506c.553,1.51,1.105,3.019,1.673,4.529s1.136,3.027,1.711,4.545,1.174,3.05,1.765,4.568q.9,2.3,1.8,4.591.921,2.311,1.85,4.607c.629,1.541,1.259,3.089,1.9,4.622.637,1.548,1.289,3.1,1.942,4.645s1.32,3.1,1.988,4.653,1.351,3.112,2.034,4.669,1.381,3.12,2.08,4.676,1.412,3.128,2.126,4.684c.721,1.572,1.443,3.136,2.18,4.7s1.474,3.143,2.218,4.707,1.5,3.143,2.264,4.715,1.543,3.143,2.318,4.715,1.566,3.151,2.364,4.715c.79,1.579,1.6,3.151,2.4,4.723s1.635,3.151,2.456,4.723,1.665,3.159,2.5,4.723q1.266,2.369,2.556,4.723,1.289,2.369,2.6,4.723t2.64,4.707c.9,1.579,1.8,3.143,2.7,4.715s6.984,11.908,7.153,12.125a.579.579,0,0,1-.215-.07c-107.084-18.341-252.149-62.325-343.684-186.613-53.254-72.352-85.349-153.871-91.949-237.821A409.375,409.375,0,0,1,91.36,1009.637c1.635-6.519,3.477-12.961,5.464-19.48,1-3.368,2.134-6.805,3.269-10.173.783-2.656,1.7-5.3,2.7-7.951,1.2-3.515,2.479-6.953,3.83-10.46C165,809.56,308.72,707.052,457.553,643.581c73.914-31.519,154.512-58.16,206.7-119.627,67.322-79.3,65.4-209.321-4.259-286.543-34.152-37.891-82.295-60.529-132.5-66.692-48.281-6.085-98.488,3.159-139.885,28.8a5.968,5.968,0,0,0-.921.573c-3.055,1.936-6.04,3.941-9.018,6.016a195.027,195.027,0,0,0-31.389,27.942c-.5.573-1.067,1.068-1.558,1.641a5.658,5.658,0,0,1-.852,1.007A216.753,216.753,0,0,0,328.1,257.116a17.069,17.069,0,0,0-1.2,1.858,224.235,224.235,0,0,0-23.929,47.352c-.568,1.579-1.2,3.151-1.773,4.8a233.3,233.3,0,0,0-10.652,107.022c.138.929.284,1.936.43,2.942q1.163,7.735,2.978,15.252a8.671,8.671,0,0,0,.284,1.293,196.379,196.379,0,0,0,16.262,44.627c.353.859.852,1.719,1.274,2.578C279.249,440,259.717,385.917,223.01,344.511,186.295,303.027,121.252,277.6,76.164,309.477,42.787,333.044,33.133,378.461,32.5,419.511,31,521.879,71.475,624.24,142.488,697.452c-18.6-19.123-39.555-34.523-56.669-55.512a379.408,379.408,0,0,1-44.1-68.125A388.532,388.532,0,0,1,.4,417.358a364.759,364.759,0,0,1,3.9-73.064C22.411,230.033,85.612,134.764,181.4,71.439,257.093,21.362,348.551-5.5,439.157.946,611.214,13.272,768.635,144.434,813.086,312.558a551.385,551.385,0,0,1,14.988,79.088V392a513.559,513.559,0,0,1,3.193,57.022" transform="translate(0 0)"/>
      <path id="Clip_9-2" data-name="Clip 9" class="cls-3" d="M0,0H831.267V1568.458H0Z" transform="translate(0 0.004)"/>
      <path id="Fill_14" data-name="Fill 14" class="cls-3" d="M275.638,70.741c-72.717-7.665-139.846,11.993-192.87,75.116C46.7,196.492,9.114,283.144,59.145,384.715,52.591,375.014-136.3,86.389,197.388,0Z" transform="translate(252.932 100.02)"/>
      <path id="Fill_16" data-name="Fill 16" class="cls-4" d="M97.79,13.479a37.454,37.454,0,0,0-.161,4.816c.192,6.48,1.75,12.837,2.847,19.224,3.062,17.838,2.325,36.946-5.94,53.012-7.467,14.54-20.691,25.588-35.549,32.169-11.926,5.28-24.873,7.2-37.8,7.7-4.351.163-8.949.07-13.254.774-3,.5-6.447,1.618-7.936,4.529C1.711,112.829,6.071,89.95,15.272,68.968A131.169,131.169,0,0,1,39.616,31.62a101.952,101.952,0,0,1,38.5-25.588A105.765,105.765,0,0,1,102.878,0,24.952,24.952,0,0,0,97.79,13.479" transform="translate(387.133 399.668)"/>
      <path id="Fill_18" data-name="Fill 18" class="cls-4" d="M5.219,9.323a28.922,28.922,0,0,1,.652,3.5c.591,4.762.161,9.577.069,14.377C5.7,40.579,8.373,54.461,16.2,65.261c7.091,9.771,17.982,16.344,29.578,19.464,9.309,2.5,18.987,2.439,28.48,1.324a81.461,81.461,0,0,1,9.77-.937c2.256.015,4.9.449,6.309,2.408C86.531,71,80.79,54.778,71.719,40.493A96.439,96.439,0,0,0,49.754,15.966,74.977,74.977,0,0,0,18.764,1.643,77.538,77.538,0,0,0,0,.055,18.386,18.386,0,0,1,5.219,9.323" transform="translate(171.704 475.175)"/>
      <path id="Fill_12" data-name="Fill 12" class="cls-3" d="M18.38,0c-1.988,6.519-3.83,12.968-5.472,19.487h0A409.761,409.761,0,0,0,1.266,153.8h0c6.6,83.958,38.7,165.476,91.957,237.828h0C184.75,515.917,329.823,559.9,436.906,578.242h0C427.252,573.945,36.845,398.574,244.827,0H18.38Z" transform="translate(78.445 990.153)"/>
    </g>
  </g>
</svg>