<svg width="538" height="322" viewBox="0 0 538 322" fill="none" xmlns="http://www.w3.org/2000/svg">
<g filter="url(#filter0_di)">
<rect x="62.0559" y="37" width="378.327" height="207.208" rx="9" fill="#F0F4F9"/>
</g>
<path d="M117.691 139.103V89.0524H382.455L383.219 147.414" stroke="#FA8888" stroke-width="2.5" stroke-linecap="round" stroke-dasharray="7"/>
<g filter="url(#filter1_d)">
<path fill-rule="evenodd" clip-rule="evenodd" d="M449.454 237.088C435.908 272.475 396.319 290.15 361.031 276.567C325.742 262.983 308.116 223.284 321.662 187.897C335.208 152.51 374.797 134.835 410.086 148.419C445.374 162.003 463 201.701 449.454 237.088" fill="white"/>
<mask id="mask0" mask-type="alpha" maskUnits="userSpaceOnUse" x="327" y="153" width="117" height="119">
<path fill-rule="evenodd" clip-rule="evenodd" d="M331.025 191.501C319.464 221.702 334.507 255.584 364.625 267.177C394.742 278.77 428.53 263.685 440.091 233.484C451.652 203.282 436.609 169.401 406.491 157.808C376.374 146.215 342.586 161.299 331.025 191.501Z" fill="white"/>
</mask>
<g mask="url(#mask0)">
<path fill-rule="evenodd" clip-rule="evenodd" d="M331.025 191.501C319.464 221.702 334.507 255.584 364.625 267.177C394.742 278.77 428.53 263.685 440.091 233.484C451.652 203.282 436.609 169.401 406.491 157.808C376.374 146.215 342.586 161.299 331.025 191.501Z" fill="url(#paint0_linear)"/>
</g>
<path fill-rule="evenodd" clip-rule="evenodd" d="M405.993 159.111C376.639 147.812 343.592 162.567 332.324 192.002C321.056 221.437 335.77 254.576 365.123 265.875C394.477 277.174 427.524 262.42 438.792 232.985C450.06 203.55 435.346 170.41 405.993 159.111M364.126 268.48C349.213 262.74 337.422 251.519 330.925 236.885C324.427 222.251 324.002 205.956 329.726 191.002C335.451 176.047 346.64 164.223 361.234 157.708C375.827 151.192 392.077 150.765 406.99 156.506C421.903 162.247 433.694 173.467 440.191 188.101C446.689 202.735 447.114 219.03 441.39 233.984C435.665 248.939 424.476 260.763 409.882 267.279C395.289 273.794 379.039 274.221 364.126 268.48" fill="white"/>
<mask id="mask1" mask-type="alpha" maskUnits="userSpaceOnUse" x="349" y="176" width="73" height="73">
<path fill-rule="evenodd" clip-rule="evenodd" d="M352.312 199.695C345.264 218.107 354.435 238.763 372.796 245.83C391.157 252.898 411.756 243.702 418.804 225.29C425.852 206.877 416.681 186.222 398.32 179.154C379.959 172.086 359.36 181.282 352.312 199.695Z" fill="white"/>
</mask>
<g mask="url(#mask1)">
<path fill-rule="evenodd" clip-rule="evenodd" d="M352.312 199.695C345.264 218.107 354.435 238.763 372.796 245.83C391.157 252.898 411.756 243.702 418.804 225.29C425.852 206.877 416.681 186.222 398.32 179.154C379.959 172.086 359.36 181.282 352.312 199.695Z" fill="url(#paint1_linear)"/>
</g>
<path fill-rule="evenodd" clip-rule="evenodd" d="M397.821 180.457C380.206 173.676 360.373 182.531 353.611 200.195C346.849 217.86 355.679 237.748 373.295 244.529C390.91 251.31 410.743 242.455 417.505 224.79C424.267 207.125 415.437 187.238 397.821 180.457M372.298 247.134C353.25 239.801 343.702 218.296 351.013 199.195C358.325 180.095 379.77 170.52 398.818 177.852C417.866 185.184 427.414 206.689 420.102 225.79C412.791 244.891 391.346 254.466 372.298 247.134" fill="white"/>
<path fill-rule="evenodd" clip-rule="evenodd" d="M390.004 200.879C383.618 198.421 376.428 201.631 373.976 208.035C371.525 214.439 374.726 221.649 381.112 224.107C387.498 226.565 394.688 223.355 397.139 216.951C399.591 210.547 396.39 203.337 390.004 200.879M380.115 226.712C372.297 223.702 368.377 214.875 371.379 207.035C374.38 199.195 383.182 195.265 391.001 198.274C398.819 201.284 402.738 210.111 399.737 217.951C396.736 225.791 387.933 229.721 380.115 226.712" fill="white"/>
<path fill-rule="evenodd" clip-rule="evenodd" d="M407.447 204.418L408.508 206.808L498.75 166.518L497.689 164.128L407.447 204.418Z" fill="#37557A"/>
<path fill-rule="evenodd" clip-rule="evenodd" d="M390.049 212.816C389.303 213.263 389.812 214.411 390.643 214.153L413.131 207.184C414.368 206.632 412.135 201.285 410.686 200.727C410.534 200.669 410.391 200.663 410.261 200.721L390.049 212.816Z" fill="#AA3939"/>
<mask id="mask2" mask-type="alpha" maskUnits="userSpaceOnUse" x="389" y="200" width="25" height="15">
<path fill-rule="evenodd" clip-rule="evenodd" d="M390.049 212.816C389.303 213.263 389.812 214.411 390.643 214.153L413.131 207.184C414.368 206.632 412.135 201.285 410.686 200.727C410.534 200.669 410.391 200.663 410.261 200.721L390.049 212.816Z" fill="white"/>
</mask>
<g mask="url(#mask2)">
</g>
<mask id="mask3" mask-type="alpha" maskUnits="userSpaceOnUse" x="473" y="166" width="35" height="14">
<path fill-rule="evenodd" clip-rule="evenodd" d="M473.405 177.833C478.747 180.524 485.01 180.671 490.47 178.233L507.137 170.792L498.699 166.54L473.405 177.833Z" fill="white"/>
</mask>
<g mask="url(#mask3)">
<path fill-rule="evenodd" clip-rule="evenodd" d="M473.405 177.833C478.747 180.524 485.01 180.671 490.47 178.233L507.137 170.792L498.699 166.54L473.405 177.833Z" fill="#FA8686"/>
</g>
<mask id="mask4" mask-type="alpha" maskUnits="userSpaceOnUse" x="472" y="155" width="29" height="21">
<path fill-rule="evenodd" clip-rule="evenodd" d="M483.467 162.459C478.006 164.897 473.924 169.663 472.344 175.444L497.638 164.151L500.133 155.018L483.467 162.459Z" fill="white"/>
</mask>
<g mask="url(#mask4)">
<path fill-rule="evenodd" clip-rule="evenodd" d="M483.467 162.459C478.006 164.897 473.924 169.663 472.344 175.444L497.638 164.151L500.133 155.018L483.467 162.459Z" fill="#FA8686"/>
</g>
</g>
<path fill-rule="evenodd" clip-rule="evenodd" d="M110.024 257.413H124.365V243.023H110.024V257.413Z" fill="#37557A"/>
<mask id="mask5" mask-type="alpha" maskUnits="userSpaceOnUse" x="36" y="147" width="162" height="100">
<path fill-rule="evenodd" clip-rule="evenodd" d="M190.698 147.147L41.8416 151.011C38.4999 150.784 36.6765 153.815 36.6765 155.368L37.9439 243.189C37.9439 244.742 39.2114 246.013 40.7605 246.013H193.072C194.622 246.013 195.889 244.742 195.889 243.189L197.981 154.431C198.027 152.482 197.274 150.6 195.897 149.224C194.564 147.891 192.76 147.144 190.882 147.145C190.82 147.145 190.759 147.145 190.698 147.147Z" fill="white"/>
</mask>
<g mask="url(#mask5)">
<path fill-rule="evenodd" clip-rule="evenodd" d="M41.8416 151.011C38.4999 150.784 36.6765 153.815 36.6765 155.368L37.9439 243.189C37.9439 244.742 39.2114 246.013 40.7605 246.013H193.072C194.622 246.013 195.889 244.742 195.889 243.189L197.981 154.431C198.027 152.482 197.274 150.6 195.897 149.224C194.564 147.891 192.76 147.144 190.882 147.145C190.82 147.145 190.759 147.145 190.698 147.147L41.8416 151.011ZM193.108 238.866C193.108 240.312 191.909 241.495 190.444 241.495H44.4336C42.9679 241.495 41.7689 240.312 41.7689 238.866L40.5729 160.471C40.7137 155.753 42.6702 154.513 45.2115 154.614L190.116 150.382C191.482 150.346 192.803 150.864 193.769 151.816C194.736 152.769 195.264 154.071 195.23 155.418L193.108 238.866Z" fill="#37557A"/>
</g>
<g filter="url(#filter2_b)">
<path fill-rule="evenodd" clip-rule="evenodd" d="M193.108 238.866C193.108 240.312 191.909 241.495 190.443 241.495H44.4334C42.9678 241.495 41.7688 240.312 41.7688 238.866L40.5728 160.471C40.7136 155.753 42.6701 154.513 45.2114 154.614L190.116 150.382C191.482 150.346 192.803 150.864 193.769 151.816C194.736 152.769 195.264 154.071 195.23 155.418L193.108 238.866Z" fill="white" fill-opacity="0.40535"/>
</g>
<mask id="mask6" mask-type="alpha" maskUnits="userSpaceOnUse" x="42" y="195" width="2" height="8">
<path fill-rule="evenodd" clip-rule="evenodd" d="M42.8912 195.754L42.9858 202.219C42.9887 202.417 43.1498 202.576 43.3466 202.576H43.352C43.5515 202.573 43.7108 202.408 43.7077 202.208L43.6131 195.743C43.6103 195.543 43.4466 195.397 43.247 195.386C43.0474 195.389 42.8881 195.554 42.8912 195.754Z" fill="white"/>
</mask>
<g mask="url(#mask6)">
<path fill-rule="evenodd" clip-rule="evenodd" d="M42.8912 195.754L42.9858 202.219C42.9887 202.417 43.1498 202.576 43.3466 202.576H43.352C43.5515 202.573 43.7108 202.408 43.7077 202.208L43.6131 195.743C43.6103 195.543 43.4466 195.397 43.247 195.386C43.0474 195.389 42.8881 195.554 42.8912 195.754Z" fill="url(#paint2_linear)"/>
</g>
<mask id="mask7" mask-type="alpha" maskUnits="userSpaceOnUse" x="81" y="254" width="73" height="6">
<path fill-rule="evenodd" clip-rule="evenodd" d="M83.3382 254.885C82.205 254.885 81.3403 255.858 81.3403 256.994V257.358C81.3403 258.495 82.205 259.357 83.3382 259.357H151.321C152.454 259.357 153.372 258.44 153.372 257.303C153.372 255.965 152.292 254.885 150.959 254.885H83.3382Z" fill="white"/>
</mask>
<g mask="url(#mask7)">
<path fill-rule="evenodd" clip-rule="evenodd" d="M83.3382 254.885C82.205 254.885 81.3403 255.555 81.3403 256.338V256.338V256.588C81.3403 257.372 82.205 257.966 83.3382 257.966V257.966H151.321C152.454 257.966 153.372 257.334 153.372 256.55V256.55C153.372 255.629 152.292 254.885 150.959 254.885V254.885H83.3382Z" fill="#37557A"/>
</g>
<g filter="url(#filter3_d)">
<path fill-rule="evenodd" clip-rule="evenodd" d="M65.1476 174.842L19.0868 178.33C18.0527 178.124 17.4885 180.86 17.4885 182.261V182.261L17.8807 261.52C17.8807 262.922 18.2729 264.068 18.7523 264.068V264.068H65.8824C66.3618 264.068 66.754 262.922 66.754 261.52V261.52L67.4012 181.416C67.4154 179.657 67.1824 177.958 66.7565 176.716V176.716C66.344 175.513 65.7857 174.84 65.2045 174.84V174.84C65.1856 174.84 65.1666 174.841 65.1476 174.842" fill="#37557A"/>
<path fill-rule="evenodd" clip-rule="evenodd" d="M62.5939 179.013L21.0112 182.083C20.0777 181.902 19.5684 184.311 19.5684 185.545V185.545L19.9224 255.322C19.9224 256.556 20.2765 257.565 20.7092 257.565V257.565H63.2573C63.69 257.565 64.0441 256.556 64.0441 255.322V255.322L64.6284 184.8C64.6413 183.252 64.4309 181.756 64.0464 180.663V180.663C63.674 179.603 63.1699 179.011 62.6453 179.011V179.011C62.6282 179.011 62.611 179.011 62.5939 179.013" fill="white"/>
<ellipse rx="1.7331" ry="1.73793" transform="matrix(-1 0 0 1 40.7122 260.693)" fill="#BDCDE8"/>
</g>
<g filter="url(#filter4_d)">
<path fill-rule="evenodd" clip-rule="evenodd" d="M28.6673 195.475L6.27669 197.567C5.77403 197.444 5.49976 199.085 5.49976 199.926V199.926L5.6904 247.473C5.6904 248.314 5.88105 249.002 6.11407 249.002V249.002H29.0246C29.2576 249.002 29.4482 248.314 29.4482 247.473V247.473L29.7629 199.418C29.7698 198.363 29.6565 197.345 29.4495 196.599V196.599C29.249 195.878 28.9775 195.474 28.695 195.474V195.474C28.6858 195.474 28.6766 195.474 28.6673 195.475" fill="#37557A"/>
<path fill-rule="evenodd" clip-rule="evenodd" d="M25.4517 198.95L8.17894 200.771C7.79117 200.664 7.57959 202.092 7.57959 202.823V202.823L7.72665 244.196C7.72665 244.927 7.87373 245.526 8.05349 245.526V245.526H25.7273C25.9071 245.526 26.0541 244.927 26.0541 244.196V244.196L26.2969 202.382C26.3022 201.464 26.2148 200.577 26.0551 199.929V199.929C25.9004 199.301 25.691 198.949 25.4731 198.949V198.949C25.466 198.949 25.4589 198.95 25.4517 198.95" fill="white"/>
<path fill-rule="evenodd" clip-rule="evenodd" d="M9.82959 199.948V199.948C11.0865 201.364 12.8948 202.166 14.7882 202.147L16.9799 202.125C19.8506 202.097 22.6048 200.983 24.6888 199.007L24.7721 198.928L9.82959 199.948Z" fill="#37557A"/>
</g>
<g clip-path="url(#clip0)">
<path fill-rule="evenodd" clip-rule="evenodd" d="M145.907 69.2944L355.486 68.0312V103.024L145.907 106.916V69.2944Z" fill="white"/>
<ellipse cx="164.019" cy="86.1598" rx="7.76219" ry="7.7838" stroke="#37557A" stroke-width="2.16"/>
<path d="M170.238 91.998L175.694 97.3741" stroke="#37557A" stroke-width="2.16"/>
<path opacity="0.834473" d="M194.516 90.3727C194.535 91.431 194.165 92.263 193.408 92.8687C192.65 93.4743 191.614 93.7886 190.298 93.8117C188.872 93.8366 187.772 93.6721 186.998 93.3181L186.974 91.9691C187.471 92.1689 188.012 92.324 188.595 92.4345C189.178 92.5449 189.755 92.5952 190.326 92.5852C191.258 92.5689 191.957 92.3812 192.422 92.022C192.887 91.6573 193.115 91.1597 193.104 90.5291C193.096 90.1123 193.005 89.7738 192.831 89.5136C192.662 89.2478 192.378 89.0059 191.979 88.788C191.586 88.5699 190.986 88.3254 190.181 88.0542C189.055 87.6735 188.246 87.2132 187.754 86.6732C187.268 86.1332 187.017 85.4218 187.001 84.5389C186.985 83.6122 187.32 82.8686 188.007 82.3081C188.694 81.7475 189.611 81.4573 190.757 81.4372C191.952 81.4163 193.055 81.6164 194.066 82.0376L193.652 83.2625C192.652 82.8631 191.683 82.6716 190.745 82.688C190.005 82.701 189.429 82.8701 189.018 83.1955C188.607 83.5208 188.406 83.9659 188.416 84.5307C188.423 84.9474 188.506 85.2888 188.664 85.5548C188.823 85.8153 189.085 86.0548 189.45 86.2733C189.822 86.4862 190.385 86.7205 191.141 86.976C192.41 87.4036 193.285 87.871 193.766 88.3782C194.252 88.8854 194.502 89.5502 194.516 90.3727ZM200.106 93.6401C198.774 93.6634 197.714 93.2761 196.927 92.478C196.145 91.6799 195.741 90.5597 195.716 89.1175C195.691 87.6644 196.027 86.5039 196.725 85.636C197.429 84.768 198.384 84.3235 199.59 84.3024C200.72 84.2826 201.62 84.6399 202.291 85.3741C202.962 86.1029 203.308 87.0759 203.329 88.2933L203.344 89.157L197.134 89.2655C197.18 90.3234 197.46 91.1221 197.974 91.6616C198.493 92.201 199.214 92.4627 200.135 92.4466C201.106 92.4296 202.062 92.21 203.003 91.7876L203.024 93.0049C202.546 93.2217 202.09 93.3778 201.659 93.4731C201.232 93.5738 200.715 93.6295 200.106 93.6401ZM199.593 85.446C198.87 85.4586 198.295 85.7045 197.87 86.1837C197.451 86.6628 197.21 87.3197 197.148 88.1546L201.861 88.0721C201.846 87.2112 201.642 86.5566 201.251 86.1081C200.859 85.6542 200.306 85.4335 199.593 85.446ZM210.768 93.2892L210.474 92.0107L210.408 92.0119C209.968 92.5846 209.526 92.9763 209.079 93.187C208.639 93.3922 208.084 93.5006 207.415 93.5123C206.521 93.528 205.815 93.3099 205.297 92.8582C204.785 92.4064 204.521 91.7556 204.506 90.9056C204.474 89.0851 205.914 88.1055 208.824 87.9668L210.353 87.8907L210.343 87.3314C210.331 86.624 210.168 86.1058 209.855 85.7767C209.548 85.4419 209.06 85.2804 208.391 85.2921C207.639 85.3053 206.793 85.5504 205.853 86.0277L205.415 84.9904C205.855 84.7413 206.337 84.5437 206.861 84.3974C207.391 84.251 207.921 84.1731 208.453 84.1638C209.528 84.145 210.327 84.3697 210.851 84.8377C211.38 85.3057 211.654 86.0661 211.672 87.1189L211.78 93.2715L210.768 93.2892ZM207.667 92.3807C208.517 92.3659 209.179 92.1212 209.653 91.6466C210.133 91.172 210.366 90.5152 210.351 89.6762L210.337 88.8619L208.973 88.9433C207.887 89.0007 207.106 89.1844 206.629 89.4944C206.157 89.7989 205.927 90.2664 205.938 90.897C205.946 91.3906 206.101 91.7636 206.401 92.0161C206.708 92.2686 207.129 92.3901 207.667 92.3807ZM218.023 83.98C218.424 83.973 218.783 83.9997 219.103 84.0599L218.935 85.3299C218.561 85.2542 218.231 85.2188 217.946 85.2238C217.217 85.2365 216.597 85.5436 216.086 86.1449C215.581 86.7461 215.336 87.4882 215.352 88.371L215.436 93.2075L214.071 93.2314L213.913 84.2165L215.04 84.1968L215.226 85.8638L215.292 85.8626C215.616 85.27 216.011 84.8106 216.477 84.4843C216.943 84.158 217.458 83.9899 218.023 83.98ZM224.022 93.2219C222.717 93.2448 221.698 92.8622 220.966 92.0741C220.239 91.2805 219.863 90.1489 219.837 88.6793C219.811 87.1713 220.153 85.9998 220.862 85.1646C221.577 84.3293 222.606 83.8999 223.95 83.8764C224.383 83.8688 224.817 83.9079 225.252 83.9935C225.687 84.0792 226.029 84.1829 226.278 84.3047L225.878 85.4718C225.575 85.3564 225.244 85.2635 224.886 85.1929C224.528 85.1169 224.212 85.0813 223.938 85.0861C222.106 85.1181 221.211 86.3021 221.252 88.6381C221.271 89.7458 221.508 90.5919 221.962 91.1763C222.422 91.7607 223.091 92.0452 223.968 92.0298C224.72 92.0167 225.487 91.8415 226.271 91.5041L226.292 92.7133C225.695 93.0364 224.938 93.2059 224.022 93.2219ZM234.083 92.8815L233.982 87.0497C233.969 86.3149 233.792 85.7695 233.451 85.4134C233.11 85.0574 232.584 84.8856 231.871 84.898C230.922 84.9146 230.233 85.1845 229.803 85.7076C229.379 86.2306 229.177 87.0789 229.197 88.2523L229.28 92.9655L227.914 92.9893L227.691 80.1907L229.057 80.1669L229.124 84.041C229.132 84.5071 229.117 84.8941 229.078 85.2019L229.161 85.2005C229.422 84.7626 229.797 84.4159 230.286 84.1605C230.781 83.8996 231.346 83.7635 231.982 83.7524C233.085 83.7331 233.914 83.9819 234.472 84.4987C235.035 85.01 235.326 85.8359 235.346 86.9765L235.449 92.8576L234.083 92.8815ZM247.121 92.6535L246.827 91.3751L246.761 91.3762C246.321 91.9489 245.878 92.3406 245.432 92.5514C244.991 92.7565 244.437 92.865 243.768 92.8767C242.874 92.8923 242.168 92.6743 241.65 92.2226C241.137 91.7708 240.874 91.1199 240.859 90.2699C240.827 88.4494 242.266 87.4698 245.177 87.3312L246.706 87.2551L246.696 86.6957C246.684 85.9884 246.521 85.4701 246.208 85.141C245.901 84.8063 245.412 84.6448 244.743 84.6565C243.992 84.6696 243.146 84.9148 242.206 85.392L241.768 84.3547C242.208 84.1057 242.69 83.908 243.214 83.7617C243.743 83.6153 244.274 83.5375 244.806 83.5282C245.881 83.5094 246.68 83.734 247.204 84.2021C247.733 84.67 248.007 85.4304 248.025 86.4833L248.132 92.6358L247.121 92.6535ZM244.019 91.7451C244.869 91.7302 245.532 91.4855 246.006 91.011C246.486 90.5363 246.719 89.8795 246.704 89.0405L246.69 88.2262L245.325 88.3077C244.24 88.365 243.459 88.5487 242.982 88.8588C242.51 89.1632 242.279 89.6308 242.29 90.2614C242.299 90.7549 242.454 91.1279 242.754 91.3805C243.06 91.6329 243.482 91.7545 244.019 91.7451ZM256.592 92.4879L256.491 86.6561C256.478 85.9213 256.301 85.3759 255.96 85.0198C255.62 84.6638 255.093 84.492 254.38 84.5044C253.437 84.5209 252.75 84.788 252.32 85.3056C251.891 85.8233 251.686 86.6688 251.706 87.8423L251.789 92.5719L250.423 92.5957L250.266 83.5808L251.377 83.5614L251.62 84.7913L251.686 84.7901C251.958 84.3411 252.344 83.9915 252.844 83.7414C253.345 83.4858 253.904 83.3526 254.524 83.3418C255.61 83.3228 256.432 83.5717 256.989 84.0885C257.546 84.5999 257.835 85.4313 257.855 86.5829L257.958 92.464L256.592 92.4879ZM258.652 83.4341L260.116 83.4085L262.18 88.5148C262.634 89.6808 262.917 90.5233 263.03 91.0424L263.096 91.0412C263.163 90.7603 263.302 90.2807 263.515 89.6023C263.734 88.9183 264.443 86.8215 265.644 83.3119L267.108 83.2863L263.413 93.6192C263.046 94.6404 262.609 95.3666 262.101 95.7978C261.599 96.2345 260.975 96.4593 260.229 96.4724C259.812 96.4796 259.4 96.4402 258.993 96.3541L258.973 95.2601C259.276 95.3207 259.614 95.3477 259.987 95.3411C260.925 95.3248 261.584 94.7866 261.966 93.7268L262.446 92.4349L258.652 83.4341ZM276.242 92.3088C275.655 92.3191 275.116 92.2215 274.624 92.0162C274.138 91.8053 273.726 91.4779 273.389 91.034L273.291 91.0357C273.366 91.561 273.407 92.0594 273.415 92.531L273.48 96.2406L272.115 96.2645L271.887 83.2027L272.998 83.1833L273.208 84.4138L273.274 84.4126C273.616 83.913 274.019 83.5494 274.481 83.3219C274.943 83.0944 275.476 82.9754 276.079 82.9649C277.275 82.944 278.203 83.3364 278.864 84.1421C279.531 84.9477 279.877 86.0881 279.903 87.5632C279.929 89.0437 279.617 90.2011 278.968 91.0352C278.324 91.8638 277.415 92.2883 276.242 92.3088ZM275.902 84.1281C274.981 84.1442 274.319 84.4108 273.917 84.928C273.514 85.4451 273.317 86.2604 273.326 87.3738L273.331 87.6781C273.353 88.9448 273.58 89.8486 274.012 90.3896C274.443 90.9251 275.125 91.1847 276.058 91.1684C276.836 91.1548 277.439 90.8288 277.867 90.1905C278.3 89.5522 278.507 88.6791 278.488 87.5715C278.468 86.4473 278.231 85.5903 277.777 85.0004C277.327 84.4048 276.703 84.1141 275.902 84.1281ZM285.798 82.7949C286.198 82.7879 286.558 82.8145 286.877 82.8748L286.71 84.1448C286.335 84.0691 286.006 84.0337 285.721 84.0387C284.991 84.0514 284.371 84.3585 283.861 84.9598C283.356 85.561 283.111 86.3031 283.126 87.1859L283.21 92.0224L281.845 92.0463L281.688 83.0313L282.815 83.0116L283 84.6786L283.066 84.6775C283.39 84.0849 283.785 83.6255 284.251 83.2992C284.717 82.9729 285.233 82.8048 285.798 82.7949ZM295.893 87.2836C295.919 88.7532 295.569 89.9084 294.843 90.7494C294.117 91.5849 293.102 92.014 291.796 92.0368C290.99 92.0509 290.271 91.8743 289.64 91.5068C289.008 91.1394 288.516 90.605 288.164 89.9035C287.811 89.2021 287.627 88.3771 287.61 87.4284C287.585 85.9588 287.932 84.8091 288.653 83.9792C289.373 83.1438 290.386 82.7147 291.691 82.6919C292.952 82.6698 293.961 83.0718 294.715 83.8978C295.476 84.7238 295.868 85.8524 295.893 87.2836ZM289.025 87.4037C289.045 88.5552 289.291 89.4285 289.762 90.0237C290.233 90.6188 290.916 90.9086 291.809 90.8929C292.703 90.8773 293.375 90.5666 293.825 89.9609C294.281 89.3495 294.499 88.4653 294.479 87.3083C294.459 86.1622 294.21 85.2972 293.734 84.7131C293.263 84.1235 292.575 83.8365 291.67 83.8524C290.777 83.868 290.107 84.1731 289.662 84.7678C289.217 85.3625 289.005 86.2411 289.025 87.4037ZM303.959 90.4501L303.885 90.4514C303.27 91.3782 302.335 91.8526 301.079 91.8745C299.9 91.8951 298.974 91.5082 298.302 90.7136C297.636 89.9189 297.29 88.7786 297.264 87.2925C297.238 85.8065 297.547 84.6464 298.19 83.8124C298.834 82.9784 299.743 82.5511 300.916 82.5306C302.139 82.5092 303.084 82.9369 303.752 83.8139L303.859 83.812L303.79 83.1632L303.746 82.5304L303.683 78.8619L305.048 78.8381L305.271 91.6367L304.161 91.6561L303.959 90.4501ZM301.232 90.7282C302.164 90.7119 302.834 90.4478 303.242 89.9361C303.655 89.4187 303.852 88.5952 303.832 87.4656L303.827 87.1777C303.805 85.9001 303.575 84.9935 303.138 84.4582C302.707 83.9172 302.025 83.6548 301.092 83.6711C300.292 83.6851 299.683 84.0084 299.266 84.641C298.855 85.2681 298.659 86.1491 298.679 87.2842C298.699 88.4358 298.925 89.3012 299.357 89.8806C299.79 90.4599 300.415 90.7425 301.232 90.7282ZM308.77 82.5578L308.872 88.406C308.885 89.1408 309.062 89.6862 309.403 90.0423C309.743 90.3983 310.27 90.5701 310.983 90.5577C311.926 90.5412 312.61 90.2714 313.034 89.7484C313.464 89.2253 313.669 88.3797 313.648 87.2117L313.566 82.4739L314.931 82.4501L315.088 91.465L313.961 91.4847L313.743 90.279L313.669 90.2803C313.397 90.7294 313.013 91.0762 312.519 91.3207C312.029 91.5651 311.466 91.6929 310.83 91.704C309.734 91.7232 308.906 91.4771 308.349 90.9657C307.797 90.4543 307.511 89.6256 307.491 88.4795L307.388 82.5819L308.77 82.5578ZM321.067 91.525C319.762 91.5478 318.743 91.1652 318.011 90.3772C317.284 89.5836 316.908 88.452 316.882 86.9824C316.856 85.4744 317.197 84.3028 317.907 83.4676C318.622 82.6323 319.651 82.203 320.995 82.1795C321.428 82.1719 321.862 82.2109 322.297 82.2966C322.731 82.3822 323.073 82.4859 323.322 82.6078L322.923 83.7749C322.619 83.6595 322.289 83.5665 321.931 83.496C321.573 83.42 321.257 83.3844 320.983 83.3892C319.151 83.4212 318.256 84.6052 318.296 86.9412C318.316 88.0489 318.553 88.8949 319.007 89.4794C319.467 90.0637 320.136 90.3483 321.013 90.3329C321.764 90.3198 322.532 90.1445 323.316 89.8072L323.337 91.0163C322.739 91.3394 321.983 91.509 321.067 91.525ZM327.854 90.2791C328.095 90.2749 328.328 90.2544 328.552 90.2175C328.776 90.1752 328.954 90.1337 329.085 90.093L329.103 91.1377C328.956 91.2115 328.738 91.2729 328.448 91.3219C328.164 91.3762 327.906 91.4054 327.676 91.4094C325.932 91.4399 325.044 90.5367 325.012 88.6997L324.919 83.3368L323.628 83.3594L323.616 82.7013L324.898 82.1112L325.44 80.1764L326.23 80.1626L326.266 82.2518L328.882 82.2061L328.9 83.2672L326.284 83.3129L326.377 88.6182C326.386 89.1611 326.522 89.5756 326.785 89.8617C327.048 90.1478 327.404 90.287 327.854 90.2791Z" fill="#37557A"/>
</g>
<defs>
<filter id="filter0_di" x="14.0559" y="0" width="474.327" height="303.208" filterUnits="userSpaceOnUse" color-interpolation-filters="sRGB">
<feFlood flood-opacity="0" result="BackgroundImageFix"/>
<feColorMatrix in="SourceAlpha" type="matrix" values="0 0 0 0 0 0 0 0 0 0 0 0 0 0 0 0 0 0 127 0" result="hardAlpha"/>
<feOffset dy="11"/>
<feGaussianBlur stdDeviation="24"/>
<feColorMatrix type="matrix" values="0 0 0 0 0 0 0 0 0 0 0 0 0 0 0 0 0 0 0.0620954 0"/>
<feBlend mode="normal" in2="BackgroundImageFix" result="effect1_dropShadow"/>
<feBlend mode="normal" in="SourceGraphic" in2="effect1_dropShadow" result="shape"/>
<feColorMatrix in="SourceAlpha" type="matrix" values="0 0 0 0 0 0 0 0 0 0 0 0 0 0 0 0 0 0 127 0" result="hardAlpha"/>
<feOffset dy="-4"/>
<feGaussianBlur stdDeviation="4.5"/>
<feComposite in2="hardAlpha" operator="arithmetic" k2="-1" k3="1"/>
<feColorMatrix type="matrix" values="0 0 0 0 0.880358 0 0 0 0 0.895785 0 0 0 0 0.916353 0 0 0 0.421993 0"/>
<feBlend mode="normal" in2="shape" result="effect2_innerShadow"/>
</filter>
<filter id="filter1_d" x="287.098" y="123.842" width="250.039" height="197.302" filterUnits="userSpaceOnUse" color-interpolation-filters="sRGB">
<feFlood flood-opacity="0" result="BackgroundImageFix"/>
<feColorMatrix in="SourceAlpha" type="matrix" values="0 0 0 0 0 0 0 0 0 0 0 0 0 0 0 0 0 0 127 0" result="hardAlpha"/>
<feOffset dy="10"/>
<feGaussianBlur stdDeviation="15"/>
<feColorMatrix type="matrix" values="0 0 0 0 0.319278 0 0 0 0 0.367803 0 0 0 0 0.424792 0 0 0 0.2 0"/>
<feBlend mode="normal" in2="BackgroundImageFix" result="effect1_dropShadow"/>
<feBlend mode="normal" in="SourceGraphic" in2="effect1_dropShadow" result="shape"/>
</filter>
<filter id="filter2_b" x="35.1362" y="144.943" width="165.532" height="101.988" filterUnits="userSpaceOnUse" color-interpolation-filters="sRGB">
<feFlood flood-opacity="0" result="BackgroundImageFix"/>
<feGaussianBlur in="BackgroundImage" stdDeviation="2.71828"/>
<feComposite in2="SourceAlpha" operator="in" result="effect1_backgroundBlur"/>
<feBlend mode="normal" in="SourceGraphic" in2="effect1_backgroundBlur" result="shape"/>
</filter>
<filter id="filter3_d" x="12.4885" y="157.84" width="75.9133" height="115.228" filterUnits="userSpaceOnUse" color-interpolation-filters="sRGB">
<feFlood flood-opacity="0" result="BackgroundImageFix"/>
<feColorMatrix in="SourceAlpha" type="matrix" values="0 0 0 0 0 0 0 0 0 0 0 0 0 0 0 0 0 0 127 0" result="hardAlpha"/>
<feOffset dx="8" dy="-4"/>
<feGaussianBlur stdDeviation="6.5"/>
<feColorMatrix type="matrix" values="0 0 0 0 0.215686 0 0 0 0 0.333333 0 0 0 0 0.478431 0 0 0 0.138488 0"/>
<feBlend mode="normal" in2="BackgroundImageFix" result="effect1_dropShadow"/>
<feBlend mode="normal" in="SourceGraphic" in2="effect1_dropShadow" result="shape"/>
</filter>
<filter id="filter4_d" x="0.499756" y="178.474" width="50.2634" height="79.5281" filterUnits="userSpaceOnUse" color-interpolation-filters="sRGB">
<feFlood flood-opacity="0" result="BackgroundImageFix"/>
<feColorMatrix in="SourceAlpha" type="matrix" values="0 0 0 0 0 0 0 0 0 0 0 0 0 0 0 0 0 0 127 0" result="hardAlpha"/>
<feOffset dx="8" dy="-4"/>
<feGaussianBlur stdDeviation="6.5"/>
<feColorMatrix type="matrix" values="0 0 0 0 0.215686 0 0 0 0 0.333333 0 0 0 0 0.478431 0 0 0 0.138488 0"/>
<feBlend mode="normal" in2="BackgroundImageFix" result="effect1_dropShadow"/>
<feBlend mode="normal" in="SourceGraphic" in2="effect1_dropShadow" result="shape"/>
</filter>
<linearGradient id="paint0_linear" x1="461.024" y1="178.799" x2="351.881" y2="137.019" gradientUnits="userSpaceOnUse">
<stop stop-color="#FA7272" stop-opacity="0.67778"/>
<stop offset="1" stop-color="#FA7272" stop-opacity="0.32162"/>
</linearGradient>
<linearGradient id="paint1_linear" x1="431.566" y1="191.951" x2="365.027" y2="166.48" gradientUnits="userSpaceOnUse">
<stop stop-color="#FA7272" stop-opacity="0.67778"/>
<stop offset="1" stop-color="#FA7272" stop-opacity="0.32162"/>
</linearGradient>
<linearGradient id="paint2_linear" x1="42.8911" y1="202.576" x2="43.7078" y2="202.576" gradientUnits="userSpaceOnUse">
<stop stop-color="#DAE2FD"/>
<stop offset="1" stop-color="#E8EFFD"/>
</linearGradient>
<clipPath id="clip0">
<rect width="209.627" height="39.0391" fill="white" transform="translate(145.907 68.0312)"/>
</clipPath>
</defs>
</svg>