<svg width="224" height="61" viewBox="0 0 224 61" fill="none" xmlns="http://www.w3.org/2000/svg">
<path fill-rule="evenodd" clip-rule="evenodd" d="M32.6509 29.816C32.6509 35.5413 32.1104 41.0381 28.9289 45.9498C26.4158 49.8251 22.741 52.8923 20.7266 57.0967C20.4288 57.7176 20.2587 58.4195 20.1563 59.0973C20.0961 59.495 20.0587 59.9003 20.0991 60.302C20.1123 60.43 20.1801 60.8401 20.2279 60.9997C18.7296 58.6357 17.0729 56.5746 16.5194 53.7601C15.9458 50.8447 16.1744 47.7667 17.2021 44.9769C18.3168 41.9529 20.4544 39.3889 22.4739 36.9297C23.1827 36.0668 23.8943 35.2062 24.5769 34.3218C26.6892 31.5844 28.6789 28.7299 30.2233 25.6281C31.4702 23.125 32.6117 20.2991 32.6148 17.4629C32.637 17.8447 32.6536 18.2012 32.6509 18.4797C32.6148 22.6896 32.6509 25.9714 32.6509 29.816Z" fill="#4E9CF6"/>
<mask id="mask0" mask-type="alpha" maskUnits="userSpaceOnUse" x="0" y="0" width="33" height="61">
<path fill-rule="evenodd" clip-rule="evenodd" d="M0 0H32.6148V61H0V0Z" fill="white"/>
</mask>
<g mask="url(#mask0)">
<path fill-rule="evenodd" clip-rule="evenodd" d="M32.6147 17.4633C32.6116 20.1432 32.0462 22.7788 30.9179 25.3837C29.4355 28.8107 27.0233 32.2319 24.5795 35.299C23.9556 36.0849 23.3287 36.8483 22.7159 37.5812C21.6181 38.8904 20.4817 40.2054 19.5037 41.604C18.6151 42.8717 17.8542 44.2089 17.3613 45.6741C16.3414 48.7223 16.6145 52.0848 17.5729 55.1495C17.5904 55.2055 17.6082 55.2612 17.6262 55.3172C17.6443 55.3738 17.6627 55.4305 17.681 55.4868C17.7 55.544 17.7187 55.6009 17.7379 55.6581C17.7572 55.7153 17.7768 55.7728 17.7967 55.83C17.8162 55.8875 17.8367 55.9457 17.8569 56.0032C17.8774 56.0613 17.8981 56.1194 17.9189 56.1772C17.94 56.2359 17.9614 56.294 17.9827 56.3522C18.0044 56.4112 18.0261 56.4699 18.0481 56.5283C18.0704 56.5876 18.0927 56.6463 18.1155 56.7054C18.1384 56.7647 18.1613 56.824 18.1845 56.883C18.208 56.9426 18.2315 57.0023 18.2553 57.0616C18.2796 57.1212 18.3037 57.1811 18.3281 57.2407C18.3528 57.301 18.3775 57.3606 18.4028 57.4205C18.4278 57.4807 18.4534 57.5409 18.479 57.6012C18.5049 57.6614 18.5308 57.7216 18.5567 57.7818C18.5832 57.8427 18.6097 57.9032 18.6368 57.9637C18.6636 58.0242 18.691 58.0847 18.7184 58.1453C18.7458 58.2064 18.7738 58.2672 18.8018 58.3277C18.8301 58.3889 18.8584 58.4497 18.887 58.5105C18.9159 58.5716 18.9451 58.6328 18.974 58.6936C19.0038 58.7547 19.0333 58.8158 19.0631 58.8767C19.0932 58.9381 19.1234 58.9992 19.1541 59.0603C19.1845 59.1218 19.2155 59.1829 19.2465 59.2437C19.2778 59.3052 19.3091 59.3663 19.3411 59.4274C19.373 59.4888 19.4052 59.55 19.4374 59.6114C19.4699 59.6725 19.5028 59.7339 19.5356 59.7948C19.5687 59.8562 19.6021 59.9173 19.6355 59.9784C19.6696 60.0396 19.7033 60.101 19.7376 60.1621C19.7723 60.2232 19.8066 60.2844 19.8415 60.3452C19.8764 60.4063 19.9117 60.4674 19.9475 60.5286C19.983 60.5897 20.2215 60.9917 20.2278 61.0001C20.2278 61.0001 20.2251 61.0001 20.2197 60.9974C16.0183 60.2841 10.3264 58.5735 6.73533 53.74C4.64592 50.9258 3.38667 47.7557 3.12742 44.4905C2.99101 42.763 3.13314 41.0078 3.5845 39.2665C3.64864 39.0129 3.72091 38.7621 3.79889 38.5089C3.83804 38.3779 3.8826 38.2442 3.92717 38.1129C3.95758 38.0099 3.99401 37.907 4.03286 37.804C4.08013 37.6676 4.13042 37.5336 4.18341 37.3972C6.47367 31.4852 12.1123 27.4984 17.952 25.0299C20.8523 23.8044 24.0143 22.7677 26.0619 20.3775C28.7032 17.2935 28.6279 12.2369 25.8948 9.23333C24.5545 7.75969 22.6656 6.87924 20.6961 6.63955C18.8015 6.40288 16.8319 6.76211 15.2074 7.75969C15.1963 7.76511 15.1824 7.77354 15.1713 7.78197C15.0517 7.85725 14.9346 7.93494 14.8178 8.01593C14.3661 8.33361 13.9566 8.69855 13.5862 9.10234C13.5666 9.12493 13.5444 9.1442 13.5251 9.16648C13.5164 9.18063 13.5025 9.19448 13.4914 9.20563C13.2685 9.45916 13.0623 9.72384 12.8729 9.99966C12.8563 10.0219 12.8395 10.0469 12.8256 10.0719C12.4411 10.6431 12.1264 11.2643 11.8867 11.9135C11.8645 11.9746 11.8395 12.0361 11.8172 12.1002C11.3574 13.432 11.2044 14.875 11.3992 16.2625C11.405 16.2986 11.4104 16.3378 11.4161 16.3769C11.4465 16.5774 11.4854 16.775 11.5326 16.9701C11.5357 16.9866 11.5384 17.0035 11.5438 17.0204C11.6862 17.622 11.8979 18.2043 12.1821 18.756C12.196 18.7894 12.2156 18.8228 12.2324 18.8562C10.956 17.1122 10.19 15.0089 8.74947 13.3983C7.30925 11.7855 4.75733 10.7964 2.988 12.0361C1.67877 12.9527 1.29997 14.719 1.27498 16.3155C1.21656 20.2968 2.80432 24.2778 5.59021 27.1251C4.86031 26.3813 4.03858 25.7821 3.3671 24.9661C2.69592 24.1498 2.11899 23.2582 1.63691 22.3166C0.678476 20.4332 0.11329 18.3435 0.0154284 16.2318C-0.029136 15.2818 0.0211496 14.329 0.168694 13.3902C0.879016 8.94637 3.35867 5.24119 7.11684 2.7781C10.087 0.830813 13.6753 -0.214044 17.2303 0.036782C23.9806 0.51585 30.1573 5.61728 31.9013 12.1559C32.1771 13.1866 32.372 14.2119 32.4891 15.2318V15.2456C32.5728 15.9867 32.6147 16.725 32.6147 17.4633Z" fill="#306CCC"/>
</g>
<mask id="mask1" mask-type="alpha" maskUnits="userSpaceOnUse" x="0" y="0" width="33" height="61">
<path fill-rule="evenodd" clip-rule="evenodd" d="M0 0H32.6148V61H0V0Z" fill="white"/>
</mask>
<g mask="url(#mask1)">
<path fill-rule="evenodd" clip-rule="evenodd" d="M32.6147 17.4633C32.6116 20.1432 32.0462 22.7788 30.9179 25.3837C29.4355 28.8107 27.0233 32.2319 24.5795 35.299C23.9556 36.0849 23.3287 36.8483 22.7159 37.5812C21.6181 38.8904 20.4817 40.2054 19.5037 41.604C18.6151 42.8717 17.8542 44.2089 17.3613 45.6741C16.3414 48.7223 16.6145 52.0848 17.5729 55.1495C17.5904 55.2055 17.6082 55.2612 17.6262 55.3172C17.6443 55.3738 17.6627 55.4305 17.681 55.4868C17.7 55.544 17.7187 55.6009 17.7379 55.6581C17.7572 55.7153 17.7768 55.7728 17.7967 55.83C17.8162 55.8875 17.8367 55.9457 17.8569 56.0032C17.8774 56.0613 17.8981 56.1194 17.9189 56.1772C17.94 56.2359 17.9614 56.294 17.9827 56.3522C18.0044 56.4112 18.0261 56.4699 18.0481 56.5283C18.0704 56.5876 18.0927 56.6463 18.1155 56.7054C18.1384 56.7647 18.1613 56.824 18.1845 56.883C18.208 56.9426 18.2315 57.0023 18.2553 57.0616C18.2796 57.1212 18.3037 57.1811 18.3281 57.2407C18.3528 57.301 18.3775 57.3606 18.4028 57.4205C18.4278 57.4807 18.4534 57.5409 18.479 57.6012C18.5049 57.6614 18.5308 57.7216 18.5567 57.7818C18.5832 57.8427 18.6097 57.9032 18.6368 57.9637C18.6636 58.0242 18.691 58.0847 18.7184 58.1453C18.7458 58.2064 18.7738 58.2672 18.8018 58.3277C18.8301 58.3889 18.8584 58.4497 18.887 58.5105C18.9159 58.5716 18.9451 58.6328 18.974 58.6936C19.0038 58.7547 19.0333 58.8158 19.0631 58.8767C19.0932 58.9381 19.1234 58.9992 19.1541 59.0603C19.1845 59.1218 19.2155 59.1829 19.2465 59.2437C19.2778 59.3052 19.3091 59.3663 19.3411 59.4274C19.373 59.4888 19.4052 59.55 19.4374 59.6114C19.4699 59.6725 19.5028 59.7339 19.5356 59.7948C19.5687 59.8562 19.6021 59.9173 19.6355 59.9784C19.6696 60.0396 19.7033 60.101 19.7376 60.1621C19.7723 60.2232 19.8066 60.2844 19.8415 60.3452C19.8764 60.4063 19.9117 60.4674 19.9475 60.5286C19.983 60.5897 20.2215 60.9917 20.2278 61.0001C20.2278 61.0001 20.2251 61.0001 20.2197 60.9974C16.0183 60.2841 10.3264 58.5735 6.73533 53.74C4.64592 50.9258 3.38667 47.7557 3.12742 44.4905C2.99101 42.763 3.13314 41.0078 3.5845 39.2665C3.64864 39.0129 3.72091 38.7621 3.79889 38.5089C3.83804 38.3779 3.8826 38.2442 3.92717 38.1129C3.95758 38.0099 3.99401 37.907 4.03286 37.804C4.08013 37.6676 4.13042 37.5336 4.18341 37.3972C6.47367 31.4852 12.1123 27.4984 17.952 25.0299C20.8523 23.8044 24.0143 22.7677 26.0619 20.3775C28.7032 17.2935 28.6279 12.2369 25.8948 9.23333C24.5545 7.75969 22.6656 6.87924 20.6961 6.63955C18.8015 6.40288 16.8319 6.76211 15.2074 7.75969C15.1963 7.76511 15.1824 7.77354 15.1713 7.78197C15.0517 7.85725 14.9346 7.93494 14.8178 8.01593C14.3661 8.33361 13.9566 8.69855 13.5862 9.10234C13.5666 9.12493 13.5444 9.1442 13.5251 9.16648C13.5164 9.18063 13.5025 9.19448 13.4914 9.20563C13.2685 9.45916 13.0623 9.72384 12.8729 9.99966C12.8563 10.0219 12.8395 10.0469 12.8256 10.0719C12.4411 10.6431 12.1264 11.2643 11.8867 11.9135C11.8645 11.9746 11.8395 12.0361 11.8172 12.1002C11.3574 13.432 11.2044 14.875 11.3992 16.2625C11.405 16.2986 11.4104 16.3378 11.4161 16.3769C11.4465 16.5774 11.4854 16.775 11.5326 16.9701C11.5357 16.9866 11.5384 17.0035 11.5438 17.0204C11.6862 17.622 11.8979 18.2043 12.1821 18.756C12.196 18.7894 12.2156 18.8228 12.2324 18.8562C10.956 17.1122 10.19 15.0089 8.74947 13.3983C7.30925 11.7855 4.75733 10.7964 2.988 12.0361C1.67877 12.9527 1.29997 14.719 1.27498 16.3155C1.21656 20.2968 2.80432 24.2778 5.59021 27.1251C4.86031 26.3813 4.03858 25.7821 3.3671 24.9661C2.69592 24.1498 2.11899 23.2582 1.63691 22.3166C0.678476 20.4332 0.11329 18.3435 0.0154284 16.2318C-0.029136 15.2818 0.0211496 14.329 0.168694 13.3902C0.879016 8.94637 3.35867 5.24119 7.11684 2.7781C10.087 0.830813 13.6753 -0.214044 17.2303 0.036782C23.9806 0.51585 30.1573 5.61728 31.9013 12.1559C32.1771 13.1866 32.372 14.2119 32.4891 15.2318V15.2456C32.5728 15.9867 32.6147 16.725 32.6147 17.4633Z" fill="#166BD3"/>
</g>
<path fill-rule="evenodd" clip-rule="evenodd" d="M19.0257 16.244C19.0194 16.3063 19.0179 16.3692 19.0194 16.4313C19.0269 16.6833 19.0881 16.9302 19.1311 17.1789C19.2513 17.8727 19.2224 18.6155 18.8981 19.2406C18.6051 19.8061 18.0863 20.2358 17.5033 20.4914C17.0354 20.6971 16.5271 20.7718 16.0203 20.791C15.8496 20.7974 15.6692 20.7938 15.5003 20.8212C15.3823 20.8404 15.2474 20.8841 15.189 20.9973C15.2561 20.1078 15.4274 19.218 15.7882 18.402C16.0233 17.87 16.3416 17.3716 16.7433 16.9495C17.1664 16.505 17.678 16.1684 18.254 15.9543C18.5668 15.8378 18.8935 15.7586 19.2251 15.7197C19.1043 15.8667 19.0444 16.0531 19.0257 16.244Z" fill="#166BD3"/>
<path fill-rule="evenodd" clip-rule="evenodd" d="M6.94163 19.0188C6.95307 19.0637 6.9615 19.1095 6.96722 19.1549C6.99011 19.3401 6.97325 19.5274 6.96993 19.7141C6.9603 20.2344 7.06508 20.7743 7.37252 21.1944C7.65045 21.5744 8.07772 21.83 8.533 21.9514C8.89825 22.0486 9.27795 22.0459 9.65043 22.0028C9.77599 21.9884 9.90758 21.9655 10.034 21.9664C10.1223 21.9673 10.2256 21.9839 10.2813 22.0601C10.1319 21.4175 9.90667 20.7867 9.55076 20.2311C9.3189 19.8689 9.03014 19.5404 8.68898 19.2772C8.32945 19.0002 7.91783 18.8117 7.47309 18.7201C7.2313 18.6701 6.98348 18.6491 6.73657 18.6584C6.84166 18.752 6.9061 18.8815 6.94163 19.0188Z" fill="#166BD3"/>
<path fill-rule="evenodd" clip-rule="evenodd" d="M118.849 20.9093H114.709V36.4361C114.709 37.6112 115.028 38.5098 115.666 39.1319C116.304 39.7541 117.219 40.0651 118.409 40.0651C118.995 40.0651 119.625 39.996 120.297 39.8577C120.97 39.7195 121.565 39.5294 122.083 39.2875L121.539 36.1769C121.332 36.2979 121.104 36.3886 120.854 36.4491C120.604 36.5096 120.375 36.5398 120.168 36.5398C119.288 36.5398 118.849 36.0214 118.849 34.9845V20.9093ZM58.3621 21.4279H62.1914L68.8926 39.832H64.5459L63.1228 35.7105H57.4048L56.0076 39.832H51.6609L58.3621 21.4279ZM62.4234 32.7811L60.2759 26.2748L58.0767 32.7811H62.4234ZM69.461 30.3315C69.1333 31.1869 68.9694 32.0812 68.9694 33.0144C68.9694 33.9475 69.1333 34.8418 69.461 35.6972C69.7888 36.5526 70.2674 37.3043 70.897 37.9524C71.5266 38.6004 72.2942 39.1188 73.1998 39.5077C74.1053 39.8965 75.1273 40.0909 76.2658 40.0909C77.8354 40.0909 79.1679 39.7539 80.2632 39.08C81.3585 38.406 82.1563 37.542 82.6565 36.4878L78.6202 35.2436C78.4133 35.6411 78.0942 35.9651 77.6629 36.2157C77.2317 36.4662 76.7574 36.5915 76.2399 36.5915C75.8259 36.5915 75.4335 36.5051 75.0626 36.3323C74.6918 36.1595 74.3684 35.9176 74.0924 35.6065C73.8164 35.2954 73.6008 34.9196 73.4456 34.4789C73.2903 34.0383 73.2127 33.5501 73.2127 33.0144C73.2127 31.943 73.5016 31.0876 74.0795 30.4482C74.6573 29.8088 75.3774 29.4891 76.2399 29.4891C77.2748 29.4891 78.0596 29.9211 78.5944 30.7851L82.6306 29.5668C82.0959 28.4954 81.2938 27.6271 80.2244 26.9617C79.155 26.2964 77.8354 25.9638 76.2658 25.9638C75.1101 25.9638 74.0795 26.1539 73.1739 26.534C72.2683 26.9142 71.505 27.4283 70.8841 28.0764C70.2631 28.7244 69.7888 29.4761 69.461 30.3315ZM83.5852 33.0144C83.5852 32.0812 83.7491 31.1869 84.0768 30.3315C84.4046 29.4761 84.8789 28.7244 85.4999 28.0764C86.1208 27.4283 86.8841 26.9142 87.7897 26.534C88.6953 26.1539 89.7259 25.9638 90.8816 25.9638C92.4512 25.9638 93.7708 26.2964 94.8402 26.9617C95.9096 27.6271 96.7117 28.4954 97.2464 29.5668L93.2102 30.7851C92.6755 29.9211 91.8906 29.4891 90.8557 29.4891C89.9932 29.4891 89.2731 29.8088 88.6953 30.4482C88.1174 31.0876 87.8285 31.943 87.8285 33.0144C87.8285 33.5501 87.9061 34.0383 88.0614 34.4789C88.2166 34.9196 88.4322 35.2954 88.7082 35.6065C88.9842 35.9176 89.3076 36.1595 89.6784 36.3323C90.0493 36.5051 90.4417 36.5915 90.8557 36.5915C91.3732 36.5915 91.8475 36.4662 92.2787 36.2157C92.71 35.9651 93.0291 35.6411 93.236 35.2436L97.2723 36.4878C96.7721 37.542 95.9743 38.406 94.879 39.08C93.7837 39.7539 92.4512 40.0909 90.8816 40.0909C89.7431 40.0909 88.7211 39.8965 87.8156 39.5077C86.91 39.1188 86.1424 38.6004 85.5128 37.9524C84.8832 37.3043 84.4046 36.5526 84.0768 35.6972C83.7491 34.8418 83.5852 33.9475 83.5852 33.0144ZM102.431 39.5336C103.337 39.9051 104.359 40.0909 105.497 40.0909C107.067 40.0909 108.412 39.7539 109.534 39.08C110.655 38.406 111.483 37.5333 112.017 36.4619L108.499 35.4769C108.309 35.978 107.934 36.3755 107.373 36.6693C106.813 36.9631 106.23 37.1099 105.627 37.1099C104.868 37.1099 104.191 36.8723 103.596 36.3971C103.001 35.9219 102.669 35.2263 102.6 34.3104H112.638C112.673 34.1376 112.699 33.9346 112.716 33.7013C112.733 33.468 112.742 33.2304 112.742 32.9884C112.742 32.0553 112.582 31.1653 112.263 30.3186C111.944 29.4718 111.474 28.7244 110.853 28.0764C110.232 27.4283 109.473 26.9142 108.576 26.534C107.679 26.1539 106.653 25.9638 105.497 25.9638C104.342 25.9638 103.311 26.1539 102.405 26.534C101.5 26.9142 100.737 27.4326 100.116 28.0893C99.4947 28.746 99.0204 29.5107 98.6926 30.3834C98.3649 31.256 98.2011 32.1849 98.2011 33.1699C98.2011 34.0858 98.3649 34.9628 98.6926 35.8009C99.0204 36.639 99.499 37.3778 100.129 38.0172C100.758 38.6566 101.526 39.162 102.431 39.5336ZM108.37 31.7441C108.284 30.88 107.973 30.1974 107.439 29.6963C106.904 29.1951 106.24 28.9446 105.446 28.9446C104.636 28.9446 103.967 29.1995 103.441 29.7093C102.915 30.219 102.609 30.8973 102.523 31.7441H108.37ZM127.41 40.0909C126.737 40.0909 126.112 39.9829 125.534 39.7669C124.957 39.5509 124.461 39.2484 124.047 38.8596C123.633 38.4708 123.305 38.0129 123.063 37.4858C122.822 36.9587 122.701 36.3841 122.701 35.762C122.701 35.0881 122.844 34.4746 123.128 33.9216C123.413 33.3686 123.814 32.8934 124.331 32.4959C124.849 32.0985 125.461 31.7874 126.168 31.5628C126.875 31.3381 127.66 31.2258 128.523 31.2258C129.092 31.2258 129.644 31.2733 130.179 31.3684C130.713 31.4634 131.179 31.606 131.576 31.7961V31.174C131.576 29.6014 130.67 28.8151 128.859 28.8151C128.117 28.8151 127.41 28.9404 126.737 29.191C126.065 29.4416 125.358 29.8174 124.616 30.3186L123.4 27.7264C124.297 27.1389 125.228 26.6982 126.194 26.4044C127.16 26.1107 128.186 25.9638 129.273 25.9638C131.326 25.9638 132.913 26.4476 134.034 27.4154C135.155 28.3831 135.716 29.8001 135.716 31.6665V35.1658C135.716 35.5806 135.78 35.87 135.91 36.0342C136.039 36.1984 136.268 36.2977 136.595 36.3323V39.8317C136.233 39.9181 135.905 39.9742 135.612 40.0002C135.319 40.0261 135.051 40.039 134.81 40.039C134.034 40.039 133.447 39.8878 133.051 39.5854C132.654 39.283 132.404 38.8553 132.3 38.3023L132.223 37.6802C131.619 38.4579 130.899 39.054 130.062 39.4688C129.226 39.8835 128.342 40.0909 127.41 40.0909ZM127.178 36.6307C127.557 36.9504 128.04 37.1103 128.627 37.1103C129.075 37.1103 129.511 37.0325 129.933 36.877C130.356 36.7215 130.705 36.5141 130.981 36.2549C131.378 35.9438 131.576 35.6155 131.576 35.2699V33.9738C131.214 33.8356 130.822 33.7275 130.399 33.6498C129.976 33.572 129.584 33.5331 129.222 33.5331C128.463 33.5331 127.837 33.7059 127.346 34.0516C126.854 34.3972 126.608 34.8465 126.608 35.3995C126.608 35.9006 126.798 36.311 127.178 36.6307Z" fill="#166BD3"/>
<path fill-rule="evenodd" clip-rule="evenodd" d="M219.556 39.8317H223.696V31.1222C223.696 30.5346 223.644 29.9341 223.541 29.3206C223.437 28.7072 223.234 28.1542 222.933 27.6617C222.631 27.1692 222.199 26.7631 221.639 26.4434C221.078 26.1237 220.341 25.9638 219.427 25.9638C218.443 25.9638 217.542 26.1842 216.723 26.6248C215.904 27.0655 215.244 27.6919 214.744 28.5041V20.9092H210.604V39.8317H214.744V32.0294C214.864 31.6665 215.037 31.3382 215.261 31.0444C215.485 30.7506 215.731 30.4957 215.998 30.2797C216.266 30.0637 216.542 29.8996 216.826 29.7872C217.111 29.6749 217.374 29.6187 217.616 29.6187C218.219 29.6187 218.694 29.8261 219.039 30.2409C219.384 30.6556 219.556 31.3036 219.556 32.1849V39.8317ZM150.967 26.4304C151.277 26.6205 151.458 26.7501 151.51 26.8193L153.373 23.294C152.959 23.052 152.506 22.8101 152.015 22.5682C151.523 22.3262 150.993 22.1102 150.423 21.9201C149.854 21.73 149.259 21.5745 148.638 21.4536C148.017 21.3326 147.388 21.2721 146.749 21.2721C145.835 21.2721 144.968 21.4017 144.149 21.6609C143.33 21.9201 142.61 22.3046 141.989 22.8144C141.368 23.3242 140.876 23.9506 140.514 24.6937C140.152 25.4368 139.971 26.2922 139.971 27.2599C139.971 27.9512 140.07 28.556 140.268 29.0744C140.466 29.5929 140.768 30.0508 141.174 30.4483C141.579 30.8457 142.092 31.1956 142.713 31.4981C143.334 31.8005 144.067 32.0813 144.912 32.3405C145.125 32.4039 145.333 32.4653 145.535 32.5248L146.685 32.8589C147.228 33.0145 147.698 33.183 148.095 33.3644C148.492 33.5459 148.802 33.7489 149.026 33.9736C149.25 34.1982 149.363 34.4833 149.363 34.829C149.363 35.7448 148.612 36.2028 147.112 36.2028C146.404 36.2028 145.706 36.1077 145.016 35.9177C144.326 35.7276 143.701 35.5116 143.14 35.2696C142.579 35.0277 142.109 34.7858 141.73 34.5438C141.35 34.3019 141.126 34.1377 141.057 34.0513L139.194 37.7581C139.729 38.121 140.311 38.4407 140.941 38.7172C141.57 38.9936 142.222 39.2313 142.894 39.43C143.567 39.6287 144.257 39.7799 144.964 39.8836C145.671 39.9873 146.361 40.0391 147.034 40.0391C147.914 40.0391 148.768 39.9398 149.595 39.741C150.423 39.5423 151.156 39.2226 151.795 38.782C152.433 38.3413 152.946 37.7624 153.334 37.0452C153.722 36.3281 153.916 35.4511 153.916 34.4142C153.916 33.5674 153.783 32.8417 153.515 32.2368C153.248 31.632 152.868 31.1179 152.377 30.6945C151.885 30.2711 151.286 29.9169 150.579 29.6317C149.871 29.3466 149.078 29.0831 148.198 28.8411C148.016 28.7918 147.84 28.7438 147.67 28.6972L146.517 28.3745C146.034 28.2363 145.633 28.0851 145.313 27.9209C144.994 27.7568 144.753 27.571 144.589 27.3636C144.425 27.1562 144.343 26.897 144.343 26.586C144.343 25.5664 145.102 25.0566 146.62 25.0566C147.172 25.0566 147.724 25.1344 148.276 25.2899C148.828 25.4454 149.337 25.6269 149.802 25.8343C150.268 26.0416 150.656 26.2404 150.967 26.4304ZM159.492 39.5335C160.398 39.905 161.42 40.0908 162.558 40.0908C164.128 40.0908 165.473 39.7538 166.594 39.0799C167.716 38.4059 168.544 37.5333 169.078 36.4618L165.56 35.4768C165.37 35.978 164.995 36.3754 164.434 36.6692C163.873 36.963 163.291 37.1099 162.688 37.1099C161.929 37.1099 161.252 36.8723 160.656 36.397C160.061 35.9218 159.729 35.2263 159.66 34.3104H169.699C169.734 34.1376 169.76 33.9345 169.777 33.7012C169.794 33.4679 169.803 33.2303 169.803 32.9884C169.803 32.0552 169.643 31.1652 169.324 30.3185C169.005 29.4717 168.535 28.7243 167.914 28.0763C167.293 27.4283 166.534 26.9141 165.637 26.534C164.74 26.1538 163.714 25.9637 162.558 25.9637C161.403 25.9637 160.372 26.1538 159.466 26.534C158.561 26.9141 157.797 27.4326 157.177 28.0892C156.556 28.7459 156.081 29.5106 155.753 30.3833C155.426 31.256 155.262 32.1848 155.262 33.1698C155.262 34.0857 155.426 34.9627 155.753 35.8008C156.081 36.639 156.56 37.3777 157.189 38.0171C157.819 38.6565 158.587 39.162 159.492 39.5335ZM165.43 31.744C165.344 30.88 165.033 30.1974 164.499 29.6962C163.964 29.1951 163.3 28.9445 162.506 28.9445C161.696 28.9445 161.027 29.1994 160.501 29.7092C159.975 30.219 159.669 30.8972 159.583 31.744H165.43ZM173.671 39.7668C174.249 39.9828 174.874 40.0908 175.547 40.0908C176.478 40.0908 177.362 39.8834 178.199 39.4687C179.035 39.054 179.755 38.4578 180.359 37.6801L180.437 38.3022C180.54 38.8552 180.79 39.2829 181.187 39.5854C181.584 39.8878 182.17 40.039 182.946 40.039C183.188 40.039 183.455 40.026 183.749 40.0001C184.042 39.9742 184.37 39.918 184.732 39.8316V36.3322C184.404 36.2977 184.175 36.1983 184.046 36.0341C183.917 35.87 183.852 35.5805 183.852 35.1658V31.6664C183.852 29.8 183.291 28.383 182.17 27.4153C181.049 26.4476 179.462 25.9637 177.41 25.9637C176.323 25.9637 175.297 26.1106 174.331 26.4044C173.365 26.6981 172.433 27.1388 171.536 27.7263L172.752 30.3185C173.494 29.8173 174.201 29.4415 174.874 29.1909C175.547 28.9403 176.254 28.815 176.996 28.815C178.807 28.815 179.712 29.6013 179.712 31.1739V31.796C179.316 31.6059 178.85 31.4633 178.315 31.3683C177.78 31.2732 177.228 31.2257 176.659 31.2257C175.797 31.2257 175.012 31.3381 174.305 31.5627C173.598 31.7874 172.985 32.0984 172.468 32.4959C171.95 32.8933 171.549 33.3686 171.265 33.9215C170.98 34.4745 170.838 35.088 170.838 35.762C170.838 36.3841 170.958 36.9587 171.2 37.4857C171.441 38.0128 171.769 38.4707 172.183 38.8596C172.597 39.2484 173.093 39.5508 173.671 39.7668ZM176.762 37.1102C177.21 37.1102 177.646 37.0324 178.068 36.8769C178.491 36.7214 178.84 36.514 179.116 36.2548C179.513 35.9437 179.711 35.6154 179.711 35.2698V33.9737C179.349 33.8355 178.956 33.7275 178.534 33.6497C178.111 33.5719 177.719 33.5331 177.357 33.5331C176.598 33.5331 175.972 33.7059 175.481 34.0515C174.989 34.3971 174.743 34.8464 174.743 35.3994C174.743 35.9005 174.933 36.311 175.313 36.6307C175.692 36.9504 176.175 37.1102 176.762 37.1102ZM192.752 30.2663C193.563 29.9553 194.468 29.7911 195.469 29.7738V26.0411C195.383 26.0239 195.296 26.0152 195.21 26.0152H194.796C193.968 26.0325 193.188 26.3003 192.455 26.8188C191.721 27.3372 191.122 28.0544 190.656 28.9702V26.2226H186.853V39.8313H190.993V31.6661C191.355 31.0439 191.941 30.5774 192.752 30.2663ZM195.056 33.0143C195.056 32.0811 195.22 31.1868 195.548 30.3314C195.875 29.476 196.35 28.7243 196.971 28.0763C197.592 27.4283 198.355 26.9141 199.261 26.534C200.166 26.1538 201.197 25.9637 202.352 25.9637C203.922 25.9637 205.242 26.2964 206.311 26.9617C207.38 27.627 208.183 28.4953 208.717 29.5668L204.681 30.7851C204.146 29.921 203.361 29.489 202.327 29.489C201.464 29.489 200.744 29.8087 200.166 30.4481C199.588 31.0875 199.299 31.9429 199.299 33.0143C199.299 33.55 199.377 34.0382 199.532 34.4789C199.687 34.9195 199.903 35.2954 200.179 35.6064C200.455 35.9175 200.778 36.1594 201.149 36.3322C201.52 36.505 201.913 36.5914 202.327 36.5914C202.844 36.5914 203.318 36.4662 203.75 36.2156C204.181 35.965 204.5 35.641 204.707 35.2435L208.743 36.4878C208.243 37.5419 207.445 38.4059 206.35 39.0799C205.255 39.7538 203.922 40.0908 202.352 40.0908C201.214 40.0908 200.192 39.8964 199.286 39.5076C198.381 39.1188 197.613 38.6003 196.984 37.9523C196.354 37.3043 195.875 36.5526 195.548 35.6972C195.22 34.8417 195.056 33.9475 195.056 33.0143Z" fill="#68AEFF"/>
</svg>